<?xml version="1.0" standalone="no"?>
<!DOCTYPE svg PUBLIC "-//W3C//DTD SVG 20010904//EN"
 "http://www.w3.org/TR/2001/REC-SVG-20010904/DTD/svg10.dtd">
<svg version="1.0" xmlns="http://www.w3.org/2000/svg"
 width="696.000000pt" height="696.000000pt" viewBox="0 0 696.000000 696.000000"
 preserveAspectRatio="xMidYMid meet">
<metadata>
Created by potrace 1.14, written by Peter Selinger 2001-2017
</metadata>
<g transform="translate(0.000000,696.000000) scale(0.100000,-0.100000)"
fill="#000000" stroke="none">
<path d="M3259 6945 c-2 -1 -43 -6 -91 -10 -48 -3 -98 -8 -110 -10 -27 -4 -89
-14 -138 -21 -130 -19 -357 -73 -505 -122 -44 -14 -84 -27 -90 -28 -63 -13
-451 -192 -583 -269 -94 -55 -267 -167 -270 -177 -2 -4 -10 -8 -17 -8 -7 0
-15 -3 -17 -7 -1 -5 -39 -35 -82 -68 -178 -134 -407 -354 -546 -524 -19 -23
-40 -48 -45 -54 -21 -24 -153 -203 -171 -232 -10 -16 -21 -32 -24 -35 -17 -15
-171 -290 -225 -403 -69 -144 -165 -383 -190 -477 -30 -107 -76 -286 -80 -307
-5 -27 -9 -51 -20 -103 -11 -57 -35 -231 -42 -310 -15 -167 -8 -598 12 -720 2
-14 6 -47 9 -75 30 -247 138 -637 244 -880 36 -80 154 -316 194 -385 62 -108
252 -388 279 -410 3 -3 28 -32 55 -65 65 -80 102 -121 214 -234 106 -106 220
-211 220 -202 0 3 4 1 8 -4 13 -19 160 -135 170 -135 6 0 12 -4 14 -8 3 -9
175 -132 184 -132 3 0 24 -13 47 -28 23 -15 56 -34 72 -42 17 -8 32 -18 35
-21 6 -7 289 -148 345 -171 202 -84 469 -168 645 -203 83 -17 263 -46 319 -53
147 -16 834 -7 894 13 7 2 30 6 52 9 22 3 74 12 115 20 41 8 86 17 100 20 56
9 222 56 335 94 333 110 656 275 939 479 108 78 142 105 197 156 10 9 21 17
23 17 7 0 115 100 210 195 98 97 224 238 268 300 4 6 20 26 35 45 15 19 37 49
49 65 11 17 41 59 66 95 180 259 355 625 445 930 57 194 104 404 118 535 4 33
9 69 11 80 25 130 24 755 -1 828 -2 6 -6 30 -9 52 -25 238 -130 619 -240 877
-66 154 -175 370 -216 428 -11 15 -20 33 -20 39 0 6 -4 11 -8 11 -5 0 -15 15
-24 33 -22 45 -168 247 -263 363 -82 100 -295 318 -379 389 -26 22 -53 45 -59
50 -96 86 -333 252 -487 342 -234 137 -537 267 -775 333 -174 48 -327 83 -423
96 -26 3 -55 8 -66 10 -10 2 -41 6 -70 9 -28 3 -67 8 -86 11 -40 6 -546 15
-551 9z"/>
</g>
</svg>
